<svg width="12" height="11" viewBox="0 0 12 11" fill="none" xmlns="http://www.w3.org/2000/svg">
<path d="M11.0021 3.5729L7.95832 3.12915L6.59791 0.370822C6.35416 -0.120844 5.64791 -0.127094 5.40207 0.370822L4.04166 3.12915L0.997906 3.5729C0.452073 3.65207 0.233323 4.32498 0.629156 4.7104L2.83124 6.85623L2.31041 9.88747C2.21666 10.4354 2.79374 10.8458 3.27707 10.5896L5.99999 9.15831L8.72291 10.5896C9.20624 10.8437 9.78332 10.4354 9.68957 9.88747L9.16874 6.85623L11.3708 4.7104C11.7667 4.32498 11.5479 3.65207 11.0021 3.5729ZM8.09582 6.50623L8.58957 9.38956L5.99999 8.02914L3.41041 9.38956L3.90416 6.50623L1.80832 4.46457L4.70416 4.04373L5.99999 1.41874L7.29582 4.04373L10.1917 4.46457L8.09582 6.50623Z" fill="white"/>
</svg>
